<?xml version="1.0" encoding="UTF-8"?>
<!DOCTYPE svg PUBLIC "-//W3C//DTD SVG 1.1//EN" "http://www.w3.org/Graphics/SVG/1.1/DTD/svg11.dtd">
<svg xmlns="http://www.w3.org/2000/svg" version="1.1" width="566px" height="441px" style="shape-rendering:geometricPrecision; text-rendering:geometricPrecision; image-rendering:optimizeQuality; fill-rule:evenodd; clip-rule:evenodd" xmlns:xlink="http://www.w3.org/1999/xlink">
<g><path style="opacity:1" fill="#0bacfb" d="M 367.5,101.5 C 371.456,103.788 374.789,106.788 377.5,110.5C 377.264,113.226 378.097,115.559 380,117.5C 380.499,121.152 380.665,124.818 380.5,128.5C 378.019,128.323 376.186,129.323 375,131.5C 374.815,135.656 373.982,139.656 372.5,143.5C 371.201,142.91 370.368,141.91 370,140.5C 369.333,141.833 368.667,141.833 368,140.5C 367.691,141.766 367.191,142.933 366.5,144C 368.037,145.11 368.703,146.61 368.5,148.5C 363.821,148.666 359.155,148.499 354.5,148C 353.692,147.692 353.025,147.192 352.5,146.5C 356.235,145.847 359.901,145.014 363.5,144C 365.919,142.491 366.919,140.325 366.5,137.5C 365.962,135.883 365.629,134.216 365.5,132.5C 365.785,130.712 365.452,129.045 364.5,127.5C 363.833,127.833 363.167,128.167 362.5,128.5C 355.424,127.106 348.424,125.44 341.5,123.5C 340.948,121.669 340.948,120.003 341.5,118.5C 340.564,117.026 339.23,116.026 337.5,115.5C 336.614,114.675 336.281,113.675 336.5,112.5C 331.681,112.648 327.015,111.982 322.5,110.5C 320.251,109.92 318.585,108.587 317.5,106.5C 317.5,105.167 317.5,103.833 317.5,102.5C 325.085,98.2308 333.252,96.5641 342,97.5C 346.167,97.6667 350.333,97.8333 354.5,98C 358.765,99.4782 363.098,100.645 367.5,101.5 Z"/></g>
<g><path style="opacity:1" fill="#6bc0ea" d="M 367.5,101.5 C 363.098,100.645 358.765,99.4782 354.5,98C 350.333,97.8333 346.167,97.6667 342,97.5C 333.252,96.5641 325.085,98.2308 317.5,102.5C 317.5,101.833 317.5,101.167 317.5,100.5C 318.975,98.5905 320.975,97.4238 323.5,97C 335.888,94.9287 348.222,95.262 360.5,98C 363.174,98.6701 365.507,99.8368 367.5,101.5 Z"/></g>
<g><path style="opacity:0.769" fill="#98d4ec" d="M 317.5,100.5 C 317.5,101.167 317.5,101.833 317.5,102.5C 317.5,103.833 317.5,105.167 317.5,106.5C 315.006,104.406 315.006,102.406 317.5,100.5 Z"/></g>
<g><path style="opacity:0.929" fill="#83d0f0" d="M 251.5,113.5 C 251.5,113.833 251.5,114.167 251.5,114.5C 246.518,115.053 241.518,115.387 236.5,115.5C 241.269,114.111 246.269,113.444 251.5,113.5 Z"/></g>
<g><path style="opacity:1" fill="#80ceef" d="M 252.5,113.5 C 260.99,112.343 269.657,112.176 278.5,113C 282.736,113.335 286.736,114.168 290.5,115.5C 277.943,113.893 265.277,113.226 252.5,113.5 Z"/></g>
<g><path style="opacity:1" fill="#0eadfc" d="M 251.5,113.5 C 251.833,113.5 252.167,113.5 252.5,113.5C 265.277,113.226 277.943,113.893 290.5,115.5C 292.515,116.924 294.848,117.59 297.5,117.5C 299.579,117.971 301.579,118.637 303.5,119.5C 303.5,120.5 303.5,121.5 303.5,122.5C 308.562,122.862 312.562,125.028 315.5,129C 316.793,129.49 318.127,129.657 319.5,129.5C 327.203,134.223 332.536,140.89 335.5,149.5C 335.929,153.677 336.929,157.677 338.5,161.5C 339.5,161.5 340.5,161.5 341.5,161.5C 341.447,165.413 342.447,168.246 344.5,170C 342.958,174.971 343.625,175.471 346.5,171.5C 348.214,173.35 350.214,174.684 352.5,175.5C 355.286,177.113 357.953,178.946 360.5,181C 370.72,180.943 380.386,183.109 389.5,187.5C 389.5,188.833 389.5,190.167 389.5,191.5C 392.644,192.172 395.644,193.172 398.5,194.5C 398.433,197.766 400.099,199.266 403.5,199C 404.667,200.833 406.167,202.333 408,203.5C 408.49,204.793 408.657,206.127 408.5,207.5C 409.959,207.433 411.292,207.766 412.5,208.5C 414.25,209.659 415.25,211.326 415.5,213.5C 416.584,220.929 418.084,228.262 420,235.5C 421.52,245.416 419.854,254.749 415,263.5C 413.5,264.667 412,265.833 410.5,267C 411.692,268.945 411.692,270.945 410.5,273C 408.648,275.019 406.981,277.186 405.5,279.5C 404.808,278.975 404.308,278.308 404,277.5C 403.506,279.134 403.34,280.801 403.5,282.5C 400.5,282.167 399.167,283.5 399.5,286.5C 398.564,287.974 397.23,288.974 395.5,289.5C 389.298,290.176 383.965,292.509 379.5,296.5C 370.258,299.938 360.925,300.271 351.5,297.5C 347.318,296.366 343.651,294.2 340.5,291C 335.961,289.018 331.295,287.185 326.5,285.5C 325.5,285.167 324.833,284.5 324.5,283.5C 323.833,282.5 323.167,281.5 322.5,280.5C 322.096,279.244 321.429,278.077 320.5,277C 320.833,276.5 321.167,276 321.5,275.5C 322.417,276.127 323.417,276.461 324.5,276.5C 325.605,277.6 326.938,278.267 328.5,278.5C 328.2,283.879 330.533,285.879 335.5,284.5C 344.649,287.601 353.982,288.268 363.5,286.5C 368.991,286.583 374.324,285.75 379.5,284C 382.887,280.982 386.887,279.482 391.5,279.5C 391.629,277.784 391.962,276.117 392.5,274.5C 394.909,272.098 396.909,269.431 398.5,266.5C 398.427,264.973 399.094,263.973 400.5,263.5C 402.371,263.141 403.871,262.141 405,260.5C 408.416,250.975 409.249,241.308 407.5,231.5C 405.991,226.12 404.158,220.787 402,215.5C 398.644,212.227 395.477,208.727 392.5,205C 391.207,204.51 389.873,204.343 388.5,204.5C 387.766,203.292 387.433,201.959 387.5,200.5C 382.185,198.018 376.519,196.018 370.5,194.5C 366.868,193.754 363.202,193.421 359.5,193.5C 354.138,193.472 348.805,193.806 343.5,194.5C 339.817,194.913 336.483,194.079 333.5,192C 336.336,190.609 338.669,188.776 340.5,186.5C 342.665,186.884 344.332,186.217 345.5,184.5C 345.043,183.702 344.376,183.369 343.5,183.5C 341.743,179.619 338.91,176.952 335,175.5C 334.076,171.371 331.743,168.371 328,166.5C 326.835,161.989 324.335,158.656 320.5,156.5C 320.5,156.167 320.5,155.833 320.5,155.5C 320.371,152.13 318.705,150.13 315.5,149.5C 314.758,147.574 313.758,145.741 312.5,144C 310.221,143.527 308.221,142.527 306.5,141C 297.149,140.168 287.816,140.335 278.5,141.5C 277.376,142.859 276.042,143.859 274.5,144.5C 273.791,145.404 272.791,145.737 271.5,145.5C 266.716,147.203 261.716,148.369 256.5,149C 257.252,149.671 257.586,150.504 257.5,151.5C 255.011,151.241 253.344,152.241 252.5,154.5C 249.921,154.917 247.754,154.25 246,152.5C 245.405,153.899 245.572,155.232 246.5,156.5C 241.949,157.414 239.116,160.081 238,164.5C 237.275,162.842 236.108,162.342 234.5,163C 235.308,164.706 236.641,165.539 238.5,165.5C 238.281,166.675 238.614,167.675 239.5,168.5C 241.747,169.374 244.08,169.708 246.5,169.5C 247.234,170.708 247.567,172.041 247.5,173.5C 246.022,173.238 244.689,173.571 243.5,174.5C 245.689,175.173 247.689,176.173 249.5,177.5C 249.998,176.397 250.331,175.397 250.5,174.5C 253.514,176.01 256.181,178.01 258.5,180.5C 258.291,181.086 257.957,181.586 257.5,182C 261.703,184.597 265.703,187.43 269.5,190.5C 268.975,191.192 268.308,191.692 267.5,192C 269.167,192.333 270.833,192.667 272.5,193C 273.573,195.657 275.24,197.823 277.5,199.5C 278.76,201.353 278.76,203.186 277.5,205C 281.064,204.556 282.898,206.389 283,210.5C 284.47,211.267 285.97,211.933 287.5,212.5C 292.008,220.182 296.008,228.182 299.5,236.5C 300.909,240.349 302.076,244.349 303,248.5C 303.925,249.047 304.758,249.713 305.5,250.5C 307.458,254.08 309.125,257.747 310.5,261.5C 309.167,261.5 307.833,261.5 306.5,261.5C 306.512,258.858 305.179,257.525 302.5,257.5C 302.573,255.973 301.906,254.973 300.5,254.5C 300.039,252.45 299.372,250.45 298.5,248.5C 295.924,245.969 293.924,242.969 292.5,239.5C 291.583,238.873 290.583,238.539 289.5,238.5C 289.404,234.275 287.404,231.608 283.5,230.5C 283.5,230.167 283.5,229.833 283.5,229.5C 283.081,226.404 281.748,223.737 279.5,221.5C 278.423,220.295 277.09,219.628 275.5,219.5C 272.529,216.192 269.529,212.859 266.5,209.5C 265.5,206.5 263.5,204.5 260.5,203.5C 259.5,203.167 258.833,202.5 258.5,201.5C 257.91,199.903 256.91,198.569 255.5,197.5C 256.853,196.476 257.52,195.143 257.5,193.5C 252.139,195.317 248.473,193.65 246.5,188.5C 243.482,188.296 240.482,187.963 237.5,187.5C 237.063,185.926 236.063,184.759 234.5,184C 235.451,183.282 235.617,182.449 235,181.5C 232.936,182.591 230.769,182.758 228.5,182C 219.594,176.546 209.927,174.046 199.5,174.5C 194.5,174.5 189.5,174.5 184.5,174.5C 184.425,168.471 184.759,162.471 185.5,156.5C 187.074,154.898 187.741,152.898 187.5,150.5C 188.41,147.008 190.076,144.008 192.5,141.5C 194.587,140.415 195.92,138.749 196.5,136.5C 200.397,133.391 204.064,130.057 207.5,126.5C 215.089,122.89 223.089,120.056 231.5,118C 238.364,117.163 245.03,115.996 251.5,114.5C 251.5,114.167 251.5,113.833 251.5,113.5 Z"/></g>
<g><path style="opacity:0.329" fill="#b9ebfd" d="M 290.5,115.5 C 293.152,115.41 295.485,116.076 297.5,117.5C 294.848,117.59 292.515,116.924 290.5,115.5 Z"/></g>
<g><path style="opacity:1" fill="#5bbded" d="M 322.5,110.5 C 327.015,111.982 331.681,112.648 336.5,112.5C 336.281,113.675 336.614,114.675 337.5,115.5C 339.23,116.026 340.564,117.026 341.5,118.5C 340.948,120.003 340.948,121.669 341.5,123.5C 338.495,120.682 335.828,117.516 333.5,114C 329.386,113.885 325.719,112.718 322.5,110.5 Z"/></g>
<g><path style="opacity:0.769" fill="#8ed6f4" d="M 227.5,117.5 C 225.485,118.924 223.152,119.59 220.5,119.5C 222.515,118.076 224.848,117.41 227.5,117.5 Z"/></g>
<g><path style="opacity:1" fill="#44b0e9" d="M 251.5,114.5 C 245.03,115.996 238.364,117.163 231.5,118C 223.089,120.056 215.089,122.89 207.5,126.5C 211.059,122.885 215.393,120.551 220.5,119.5C 223.152,119.59 225.485,118.924 227.5,117.5C 230.219,116.087 233.219,115.42 236.5,115.5C 241.518,115.387 246.518,115.053 251.5,114.5 Z"/></g>
<g><path style="opacity:1" fill="#54b8ed" d="M 377.5,110.5 C 383.083,115.413 384.917,121.413 383,128.5C 381.736,130.607 379.903,131.607 377.5,131.5C 377.427,136.127 376.26,140.46 374,144.5C 372.549,146.464 370.716,147.797 368.5,148.5C 368.703,146.61 368.037,145.11 366.5,144C 367.191,142.933 367.691,141.766 368,140.5C 368.667,141.833 369.333,141.833 370,140.5C 370.368,141.91 371.201,142.91 372.5,143.5C 373.982,139.656 374.815,135.656 375,131.5C 376.186,129.323 378.019,128.323 380.5,128.5C 380.665,124.818 380.499,121.152 380,117.5C 378.097,115.559 377.264,113.226 377.5,110.5 Z"/></g>
<g><path style="opacity:1" fill="#75c6eb" d="M 303.5,119.5 C 309.543,121.846 314.876,125.18 319.5,129.5C 318.127,129.657 316.793,129.49 315.5,129C 312.562,125.028 308.562,122.862 303.5,122.5C 303.5,121.5 303.5,120.5 303.5,119.5 Z"/></g>
<g><path style="opacity:0.894" fill="#96dff0" d="M 351.5,127.5 C 354.187,127.336 356.854,127.503 359.5,128C 360.056,128.383 360.389,128.883 360.5,129.5C 357.345,129.01 354.345,128.344 351.5,127.5 Z"/></g>
<g><path style="opacity:1" fill="#52b6e9" d="M 341.5,123.5 C 348.424,125.44 355.424,127.106 362.5,128.5C 363.167,128.167 363.833,127.833 364.5,127.5C 365.452,129.045 365.785,130.712 365.5,132.5C 363.999,131.248 362.332,130.248 360.5,129.5C 360.389,128.883 360.056,128.383 359.5,128C 356.854,127.503 354.187,127.336 351.5,127.5C 347.349,127.901 344.015,126.567 341.5,123.5 Z"/></g>
<g><path style="opacity:0.604" fill="#86d7f5" d="M 207.5,126.5 C 204.064,130.057 200.397,133.391 196.5,136.5C 197.203,134.284 198.536,132.451 200.5,131C 202.734,129.25 205.068,127.75 207.5,126.5 Z"/></g>
<g><path style="opacity:0.706" fill="#8fd6f3" d="M 196.5,136.5 C 195.92,138.749 194.587,140.415 192.5,141.5C 193.08,139.251 194.413,137.585 196.5,136.5 Z"/></g>
<g><path style="opacity:1" fill="#57b8ea" d="M 315.5,149.5 C 312.797,146.481 309.464,144.481 305.5,143.5C 305.082,142.778 304.416,142.278 303.5,142C 297.319,141.181 291.319,141.347 285.5,142.5C 281.888,143.422 278.221,144.089 274.5,144.5C 276.042,143.859 277.376,142.859 278.5,141.5C 287.816,140.335 297.149,140.168 306.5,141C 308.221,142.527 310.221,143.527 312.5,144C 313.758,145.741 314.758,147.574 315.5,149.5 Z"/></g>
<g><path style="opacity:0.011" fill="#d7f5fc" d="M 285.5,142.5 C 291.319,141.347 297.319,141.181 303.5,142C 304.416,142.278 305.082,142.778 305.5,143.5C 298.877,142.62 292.211,142.287 285.5,142.5 Z"/></g>
<g><path style="opacity:0.718" fill="#acddec" d="M 350.5,144.5 C 349.209,144.263 348.209,144.596 347.5,145.5C 344.685,145.217 344.185,144.217 346,142.5C 347.728,142.899 349.228,143.566 350.5,144.5 Z"/></g>
<g><path style="opacity:1" fill="#76c8ed" d="M 366.5,137.5 C 366.919,140.325 365.919,142.491 363.5,144C 359.901,145.014 356.235,145.847 352.5,146.5C 353.025,147.192 353.692,147.692 354.5,148C 359.155,148.499 363.821,148.666 368.5,148.5C 362.601,150.981 356.601,150.815 350.5,148C 349.058,147.623 348.058,146.79 347.5,145.5C 348.209,144.596 349.209,144.263 350.5,144.5C 354.605,144.766 358.605,144.266 362.5,143C 364.469,141.5 365.802,139.667 366.5,137.5 Z"/></g>
<g><path style="opacity:1" fill="#69bff0" d="M 271.5,145.5 C 267.134,148.012 262.467,150.012 257.5,151.5C 257.586,150.504 257.252,149.671 256.5,149C 261.716,148.369 266.716,147.203 271.5,145.5 Z"/></g>
<g><path style="opacity:1" fill="#8ad1ed" d="M 257.5,151.5 C 256.341,153.25 254.674,154.25 252.5,154.5C 253.344,152.241 255.011,151.241 257.5,151.5 Z"/></g>
<g><path style="opacity:1" fill="#79caea" d="M 315.5,149.5 C 318.705,150.13 320.371,152.13 320.5,155.5C 318.844,153.54 317.177,151.54 315.5,149.5 Z"/></g>
<g><path style="opacity:0.667" fill="#8fd9f3" d="M 187.5,150.5 C 187.741,152.898 187.074,154.898 185.5,156.5C 185.259,154.102 185.926,152.102 187.5,150.5 Z"/></g>
<g><path style="opacity:1" fill="#62bbe9" d="M 335.5,149.5 C 338.008,153.182 340.008,157.182 341.5,161.5C 340.5,161.5 339.5,161.5 338.5,161.5C 336.929,157.677 335.929,153.677 335.5,149.5 Z"/></g>
<g><path style="opacity:1" fill="#4bb5ee" d="M 252.5,154.5 C 247.879,157.156 243.546,160.323 239.5,164C 242.02,165.697 244.353,167.53 246.5,169.5C 244.08,169.708 241.747,169.374 239.5,168.5C 238.614,167.675 238.281,166.675 238.5,165.5C 236.641,165.539 235.308,164.706 234.5,163C 236.108,162.342 237.275,162.842 238,164.5C 239.116,160.081 241.949,157.414 246.5,156.5C 245.572,155.232 245.405,153.899 246,152.5C 247.754,154.25 249.921,154.917 252.5,154.5 Z"/></g>
<g><path style="opacity:1" fill="#69c1ec" d="M 320.5,156.5 C 324.335,158.656 326.835,161.989 328,166.5C 331.743,168.371 334.076,171.371 335,175.5C 338.91,176.952 341.743,179.619 343.5,183.5C 339.79,181.215 336.29,178.548 333,175.5C 328.326,169.481 324.159,163.147 320.5,156.5 Z"/></g>
<g><path style="opacity:0.529" fill="#8ce0fd" d="M 185.5,156.5 C 184.759,162.471 184.425,168.471 184.5,174.5C 189.5,174.5 194.5,174.5 199.5,174.5C 199.5,174.833 199.5,175.167 199.5,175.5C 194.122,175.602 188.955,175.602 184,175.5C 183.333,170.5 183.333,165.5 184,160.5C 184.21,158.942 184.71,157.609 185.5,156.5 Z"/></g>
<g><path style="opacity:1" fill="#55bbef" d="M 341.5,161.5 C 344.673,166.491 348.34,171.157 352.5,175.5C 350.214,174.684 348.214,173.35 346.5,171.5C 343.625,175.471 342.958,174.971 344.5,170C 342.447,168.246 341.447,165.413 341.5,161.5 Z"/></g>
<g><path style="opacity:1" fill="#56b7ed" d="M 199.5,175.5 C 199.5,175.167 199.5,174.833 199.5,174.5C 209.927,174.046 219.594,176.546 228.5,182C 230.769,182.758 232.936,182.591 235,181.5C 235.617,182.449 235.451,183.282 234.5,184C 236.063,184.759 237.063,185.926 237.5,187.5C 225.531,181.34 212.864,177.34 199.5,175.5 Z"/></g>
<g><path style="opacity:0.004" fill="#cececc" d="M 215.5,183.5 C 217.898,183.259 219.898,183.926 221.5,185.5C 219.214,185.405 217.214,184.738 215.5,183.5 Z"/></g>
<g><path style="opacity:0.929" fill="#8a8a8a" d="M 187.5,183.5 C 185.898,185.074 183.898,185.741 181.5,185.5C 183.102,183.926 185.102,183.259 187.5,183.5 Z"/></g>
<g><path style="opacity:1" fill="#3d3d3d" d="M 215.5,183.5 C 217.214,184.738 219.214,185.405 221.5,185.5C 230.151,188.155 237.485,192.822 243.5,199.5C 244.08,201.749 245.413,203.415 247.5,204.5C 247.5,205.833 246.833,206.5 245.5,206.5C 244.738,204.738 243.404,203.738 241.5,203.5C 241.027,202.094 240.027,201.427 238.5,201.5C 235.982,200.736 233.649,199.736 231.5,198.5C 230.365,196.787 228.698,196.12 226.5,196.5C 226.167,196.5 225.833,196.5 225.5,196.5C 225.082,195.778 224.416,195.278 223.5,195C 220.854,194.503 218.187,194.336 215.5,194.5C 213.359,193.837 211.025,193.503 208.5,193.5C 204.553,193.363 200.886,194.03 197.5,195.5C 180.267,199.597 167.934,209.597 160.5,225.5C 159.073,227.148 158.24,229.148 158,231.5C 157.183,237.016 157.349,242.35 158.5,247.5C 159.451,248.919 159.784,250.585 159.5,252.5C 159.12,254.698 159.787,256.365 161.5,257.5C 163.008,259.181 164.008,261.181 164.5,263.5C 164.427,265.027 165.094,266.027 166.5,266.5C 167.833,269.833 170.167,272.167 173.5,273.5C 179.245,277.371 185.245,280.704 191.5,283.5C 193.562,284.776 195.896,285.61 198.5,286C 205.346,286.821 212.013,286.654 218.5,285.5C 220.435,284.85 222.435,284.517 224.5,284.5C 227.525,284.123 230.525,283.956 233.5,284C 233.833,284.333 234.167,284.667 234.5,285C 233.029,286.583 232.029,288.417 231.5,290.5C 218.4,298.683 204.4,301.017 189.5,297.5C 186.495,295.723 183.162,294.723 179.5,294.5C 176.515,293.674 173.849,292.341 171.5,290.5C 171.027,289.094 170.027,288.427 168.5,288.5C 168.027,287.094 167.027,286.427 165.5,286.5C 164.833,286.167 164.167,285.833 163.5,285.5C 163.167,284.833 162.833,284.167 162.5,283.5C 161.415,281.413 159.749,280.08 157.5,279.5C 157.5,278.833 157.167,278.5 156.5,278.5C 145.158,264.8 140.824,249.133 143.5,231.5C 145.074,228.093 146.074,224.427 146.5,220.5C 147.042,217.088 148.375,214.088 150.5,211.5C 151.906,211.027 152.573,210.027 152.5,208.5C 154.262,207.738 155.262,206.404 155.5,204.5C 156.397,203.402 157.23,203.402 158,204.5C 158.608,202.846 159.108,201.179 159.5,199.5C 162.089,198.581 164.089,196.914 165.5,194.5C 167.404,194.262 168.738,193.262 169.5,191.5C 171.027,191.573 172.027,190.906 172.5,189.5C 175.088,187.375 178.088,186.042 181.5,185.5C 183.898,185.741 185.898,185.074 187.5,183.5C 196.833,180.833 206.167,180.833 215.5,183.5 Z"/></g>
<g><path style="opacity:0.984" fill="#81d3f4" d="M 343.5,183.5 C 344.376,183.369 345.043,183.702 345.5,184.5C 344.332,186.217 342.665,186.884 340.5,186.5C 341.694,185.728 342.694,184.728 343.5,183.5 Z"/></g>
<g><path style="opacity:0.741" fill="#9f9f9f" d="M 172.5,189.5 C 172.027,190.906 171.027,191.573 169.5,191.5C 169.973,190.094 170.973,189.427 172.5,189.5 Z"/></g>
<g><path style="opacity:0.753" fill="#888888" d="M 169.5,191.5 C 168.738,193.262 167.404,194.262 165.5,194.5C 166.262,192.738 167.596,191.738 169.5,191.5 Z"/></g>
<g><path style="opacity:1" fill="#5cbaf0" d="M 340.5,186.5 C 338.669,188.776 336.336,190.609 333.5,192C 336.483,194.079 339.817,194.913 343.5,194.5C 343.5,194.833 343.5,195.167 343.5,195.5C 338.034,196.889 332.701,198.889 327.5,201.5C 327.5,200.5 327.5,199.5 327.5,198.5C 328.5,198.5 329.5,198.5 330.5,198.5C 330.119,196.058 330.786,195.391 332.5,196.5C 333.386,195.675 333.719,194.675 333.5,193.5C 331.435,193.517 329.435,193.85 327.5,194.5C 330.988,190.583 335.321,187.917 340.5,186.5 Z"/></g>
<g><path style="opacity:0.425" fill="#a0a0a0" d="M 215.5,194.5 C 209.477,194.502 203.477,194.835 197.5,195.5C 200.886,194.03 204.553,193.363 208.5,193.5C 211.025,193.503 213.359,193.837 215.5,194.5 Z"/></g>
<g><path style="opacity:0.455" fill="#95dcf7" d="M 359.5,193.5 C 359.5,193.833 359.5,194.167 359.5,194.5C 354.146,194.569 348.813,194.902 343.5,195.5C 343.5,195.167 343.5,194.833 343.5,194.5C 348.805,193.806 354.138,193.472 359.5,193.5 Z"/></g>
<g><path style="opacity:0.855" fill="#aaaaaa" d="M 215.5,194.5 C 218.187,194.336 220.854,194.503 223.5,195C 224.416,195.278 225.082,195.778 225.5,196.5C 221.989,196.101 218.656,195.434 215.5,194.5 Z"/></g>
<g><path style="opacity:1" fill="#51b7f1" d="M 237.5,187.5 C 240.482,187.963 243.482,188.296 246.5,188.5C 248.473,193.65 252.139,195.317 257.5,193.5C 257.52,195.143 256.853,196.476 255.5,197.5C 256.91,198.569 257.91,199.903 258.5,201.5C 251.495,196.826 244.495,192.159 237.5,187.5 Z"/></g>
<g><path style="opacity:1" fill="#11aaf6" d="M 327.5,201.5 C 327.167,201.5 326.833,201.5 326.5,201.5C 324.801,201.66 323.134,201.494 321.5,201C 323.249,199.708 325.082,198.542 327,197.5C 327.483,196.552 327.649,195.552 327.5,194.5C 329.435,193.85 331.435,193.517 333.5,193.5C 333.719,194.675 333.386,195.675 332.5,196.5C 330.786,195.391 330.119,196.058 330.5,198.5C 329.5,198.5 328.5,198.5 327.5,198.5C 327.5,199.5 327.5,200.5 327.5,201.5 Z"/></g>
<g><path style="opacity:0.886" fill="#8e8e8e" d="M 226.5,196.5 C 228.698,196.12 230.365,196.787 231.5,198.5C 229.597,198.204 227.93,197.537 226.5,196.5 Z"/></g>
<g><path style="opacity:1" fill="#5cbbe9" d="M 389.5,187.5 C 399.414,192.082 407.08,199.082 412.5,208.5C 411.292,207.766 409.959,207.433 408.5,207.5C 408.657,206.127 408.49,204.793 408,203.5C 406.167,202.333 404.667,200.833 403.5,199C 400.099,199.266 398.433,197.766 398.5,194.5C 395.644,193.172 392.644,192.172 389.5,191.5C 389.5,190.167 389.5,188.833 389.5,187.5 Z"/></g>
<g><path style="opacity:0.824" fill="#898989" d="M 165.5,194.5 C 164.089,196.914 162.089,198.581 159.5,199.5C 160.911,197.086 162.911,195.419 165.5,194.5 Z"/></g>
<g><path style="opacity:1" fill="#5cbbeb" d="M 359.5,194.5 C 359.5,194.167 359.5,193.833 359.5,193.5C 363.202,193.421 366.868,193.754 370.5,194.5C 376.519,196.018 382.185,198.018 387.5,200.5C 387.433,201.959 387.766,203.292 388.5,204.5C 379.534,199.178 369.868,195.845 359.5,194.5 Z"/></g>
<g><path style="opacity:0.008" fill="#fefffe" d="M 157.5,200.5 C 156.833,199.167 156.833,199.167 157.5,200.5 Z"/></g>
<g><path style="opacity:0.804" fill="#9ea0a4" d="M 243.5,199.5 C 245.587,200.585 246.92,202.251 247.5,204.5C 245.413,203.415 244.08,201.749 243.5,199.5 Z"/></g>
<g><path style="opacity:1" fill="#5bb9eb" d="M 327.5,194.5 C 327.649,195.552 327.483,196.552 327,197.5C 325.082,198.542 323.249,199.708 321.5,201C 323.134,201.494 324.801,201.66 326.5,201.5C 325.564,202.974 324.23,203.974 322.5,204.5C 321.5,204.5 320.5,204.5 319.5,204.5C 319.5,203.5 319.5,202.5 319.5,201.5C 321.569,198.427 324.236,196.094 327.5,194.5 Z"/></g>
<g><path style="opacity:1" fill="#6f6f6f" d="M 159.5,199.5 C 159.108,201.179 158.608,202.846 158,204.5C 157.23,203.402 156.397,203.402 155.5,204.5C 155.733,202.938 156.4,201.605 157.5,200.5C 158.167,200.167 158.833,199.833 159.5,199.5 Z"/></g>
<g><path style="opacity:0.49" fill="#a0a09f" d="M 238.5,201.5 C 240.027,201.427 241.027,202.094 241.5,203.5C 239.973,203.573 238.973,202.906 238.5,201.5 Z"/></g>
<g><path style="opacity:0.808" fill="#9d9e9a" d="M 241.5,203.5 C 243.404,203.738 244.738,204.738 245.5,206.5C 243.596,206.262 242.262,205.262 241.5,203.5 Z"/></g>
<g><path style="opacity:0.004" fill="#fefffe" d="M 249.5,203.5 C 250.833,204.167 250.833,204.167 249.5,203.5 Z"/></g>
<g><path style="opacity:0.925" fill="#92d9f3" d="M 260.5,203.5 C 263.5,204.5 265.5,206.5 266.5,209.5C 264.167,207.833 262.167,205.833 260.5,203.5 Z"/></g>
<g><path style="opacity:1" fill="#55b8ed" d="M 246.5,169.5 C 263.932,180.264 277.598,194.598 287.5,212.5C 285.97,211.933 284.47,211.267 283,210.5C 282.898,206.389 281.064,204.556 277.5,205C 278.76,203.186 278.76,201.353 277.5,199.5C 275.24,197.823 273.573,195.657 272.5,193C 270.833,192.667 269.167,192.333 267.5,192C 268.308,191.692 268.975,191.192 269.5,190.5C 265.703,187.43 261.703,184.597 257.5,182C 257.957,181.586 258.291,181.086 258.5,180.5C 256.181,178.01 253.514,176.01 250.5,174.5C 250.331,175.397 249.998,176.397 249.5,177.5C 247.689,176.173 245.689,175.173 243.5,174.5C 244.689,173.571 246.022,173.238 247.5,173.5C 247.567,172.041 247.234,170.708 246.5,169.5 Z"/></g>
<g><path style="opacity:1" fill="#8bcae6" d="M 319.5,201.5 C 319.5,202.5 319.5,203.5 319.5,204.5C 320.5,204.5 321.5,204.5 322.5,204.5C 318.461,208.191 314.628,212.191 311,216.5C 310.333,215.167 310.333,213.833 311,212.5C 313.37,208.403 316.203,204.736 319.5,201.5 Z"/></g>
<g><path style="opacity:0.725" fill="#8b8b8b" d="M 155.5,204.5 C 155.262,206.404 154.262,207.738 152.5,208.5C 152.738,206.596 153.738,205.262 155.5,204.5 Z"/></g>
<g><path style="opacity:0.835" fill="#6c6c6a" d="M 247.5,204.5 C 249.543,205.579 250.876,207.246 251.5,209.5C 251.328,210.492 251.662,211.158 252.5,211.5C 252.5,212.167 252.167,212.5 251.5,212.5C 249.167,210.833 247.167,208.833 245.5,206.5C 246.833,206.5 247.5,205.833 247.5,204.5 Z"/></g>
<g><path style="opacity:0.008" fill="#efefef" d="M 252.5,211.5 C 251.662,211.158 251.328,210.492 251.5,209.5C 253.677,208.496 254.011,209.162 252.5,211.5 Z"/></g>
<g><path style="opacity:0.365" fill="#b8b8b8" d="M 152.5,208.5 C 152.573,210.027 151.906,211.027 150.5,211.5C 150.427,209.973 151.094,208.973 152.5,208.5 Z"/></g>
<g><path style="opacity:0.01" fill="#e0e0e0" d="M 252.5,211.5 C 253.601,212.848 254.601,214.348 255.5,216C 253.259,216.124 251.926,214.958 251.5,212.5C 252.167,212.5 252.5,212.167 252.5,211.5 Z"/></g>
<g><path style="opacity:1" fill="#5fbbe8" d="M 388.5,204.5 C 389.873,204.343 391.207,204.51 392.5,205C 395.477,208.727 398.644,212.227 402,215.5C 404.158,220.787 405.991,226.12 407.5,231.5C 406.833,230.833 406.167,230.167 405.5,229.5C 402.551,219.254 396.884,210.92 388.5,204.5 Z"/></g>
<g><path style="opacity:0.71" fill="#9c9c9c" d="M 146.5,220.5 C 146.074,224.427 145.074,228.093 143.5,231.5C 143.517,227.466 144.517,223.799 146.5,220.5 Z"/></g>
<g><path style="opacity:1" fill="#63bee9" d="M 275.5,219.5 C 277.09,219.628 278.423,220.295 279.5,221.5C 281.748,223.737 283.081,226.404 283.5,229.5C 280.484,226.48 277.817,223.146 275.5,219.5 Z"/></g>
<g><path style="opacity:1" fill="#76c6ec" d="M 283.5,230.5 C 287.404,231.608 289.404,234.275 289.5,238.5C 287.147,236.14 285.147,233.473 283.5,230.5 Z"/></g>
<g><path style="opacity:0.142" fill="#c1c1c1" d="M 160.5,225.5 C 158.818,232.719 158.152,240.052 158.5,247.5C 157.349,242.35 157.183,237.016 158,231.5C 158.24,229.148 159.073,227.148 160.5,225.5 Z"/></g>
<g><path style="opacity:0.161" fill="#a8e5f9" d="M 405.5,229.5 C 406.167,230.167 406.833,230.833 407.5,231.5C 407.666,237.176 407.499,242.843 407,248.5C 406.79,250.058 406.29,251.391 405.5,252.5C 406.746,244.821 406.746,237.155 405.5,229.5 Z"/></g>
<g><path style="opacity:0.988" fill="#43b0e5" d="M 407.5,231.5 C 409.249,241.308 408.416,250.975 405,260.5C 403.871,262.141 402.371,263.141 400.5,263.5C 401.93,259.646 403.597,255.979 405.5,252.5C 406.29,251.391 406.79,250.058 407,248.5C 407.499,242.843 407.666,237.176 407.5,231.5 Z"/></g>
<g><path style="opacity:1" fill="#6dc1ed" d="M 289.5,238.5 C 290.583,238.539 291.583,238.873 292.5,239.5C 293.924,242.969 295.924,245.969 298.5,248.5C 299.372,250.45 300.039,252.45 300.5,254.5C 296.352,249.552 292.686,244.218 289.5,238.5 Z"/></g>
<g><path style="opacity:0.859" fill="#949494" d="M 159.5,252.5 C 160.537,253.93 161.204,255.597 161.5,257.5C 159.787,256.365 159.12,254.698 159.5,252.5 Z"/></g>
<g><path style="opacity:0.114" fill="#bbeffd" d="M 300.5,254.5 C 301.906,254.973 302.573,255.973 302.5,257.5C 301.094,257.027 300.427,256.027 300.5,254.5 Z"/></g>
<g><path style="opacity:1" fill="#6ac0ed" d="M 415.5,213.5 C 425.951,234.933 424.451,255.599 411,275.5C 407.956,280.045 404.123,283.711 399.5,286.5C 399.167,283.5 400.5,282.167 403.5,282.5C 403.34,280.801 403.506,279.134 404,277.5C 404.308,278.308 404.808,278.975 405.5,279.5C 406.981,277.186 408.648,275.019 410.5,273C 411.692,270.945 411.692,268.945 410.5,267C 412,265.833 413.5,264.667 415,263.5C 419.854,254.749 421.52,245.416 420,235.5C 418.084,228.262 416.584,220.929 415.5,213.5 Z"/></g>
<g><path style="opacity:1" fill="#4db4ec" d="M 299.5,236.5 C 306.069,248.636 313.402,260.303 321.5,271.5C 322.075,273.411 323.075,275.078 324.5,276.5C 323.417,276.461 322.417,276.127 321.5,275.5C 321.167,276 320.833,276.5 320.5,277C 321.429,278.077 322.096,279.244 322.5,280.5C 321.609,279.89 320.609,279.557 319.5,279.5C 313.068,272.738 307.402,265.404 302.5,257.5C 305.179,257.525 306.512,258.858 306.5,261.5C 307.833,261.5 309.167,261.5 310.5,261.5C 309.125,257.747 307.458,254.08 305.5,250.5C 304.758,249.713 303.925,249.047 303,248.5C 302.076,244.349 300.909,240.349 299.5,236.5 Z"/></g>
<g><path style="opacity:0.408" fill="#b5b5b5" d="M 164.5,263.5 C 165.906,263.973 166.573,264.973 166.5,266.5C 165.094,266.027 164.427,265.027 164.5,263.5 Z"/></g>
<g><path style="opacity:0.82" fill="#b0b0b0" d="M 166.5,266.5 C 169.167,268.5 171.5,270.833 173.5,273.5C 170.167,272.167 167.833,269.833 166.5,266.5 Z"/></g>
<g><path style="opacity:0.004" fill="#fefffe" d="M 246.5,269.5 C 247.833,270.167 247.833,270.167 246.5,269.5 Z"/></g>
<g><path style="opacity:0.451" fill="#b4b4b4" d="M 250.5,272.5 C 250.672,271.508 250.338,270.842 249.5,270.5C 250.509,267.313 252.509,265.48 255.5,265C 253.686,267.479 252.019,269.979 250.5,272.5 Z"/></g>
<g><path style="opacity:0.62" fill="#90d7f2" d="M 398.5,266.5 C 396.909,269.431 394.909,272.098 392.5,274.5C 391.609,275.11 390.609,275.443 389.5,275.5C 392.167,272.167 395.167,269.167 398.5,266.5 Z"/></g>
<g><path style="opacity:0.529" fill="#a8a8a8" d="M 248.5,271.5 C 247.415,273.587 245.749,274.92 243.5,275.5C 244.585,273.413 246.251,272.08 248.5,271.5 Z"/></g>
<g><path style="opacity:0.671" fill="#a7e4f8" d="M 321.5,271.5 C 324.167,273.5 326.5,275.833 328.5,278.5C 326.938,278.267 325.605,277.6 324.5,276.5C 323.075,275.078 322.075,273.411 321.5,271.5 Z"/></g>
<g><path style="opacity:0.004" fill="#fefffe" d="M 238.5,277.5 C 237.833,276.167 237.833,276.167 238.5,277.5 Z"/></g>
<g><path style="opacity:1" fill="#45b2ed" d="M 392.5,274.5 C 391.962,276.117 391.629,277.784 391.5,279.5C 386.887,279.482 382.887,280.982 379.5,284C 374.324,285.75 368.991,286.583 363.5,286.5C 363.5,286.167 363.5,285.833 363.5,285.5C 372.842,283.825 381.509,280.492 389.5,275.5C 390.609,275.443 391.609,275.11 392.5,274.5 Z"/></g>
<g><path style="opacity:0.008" fill="#fefffe" d="M 156.5,278.5 C 155.833,279.167 155.833,279.167 156.5,278.5 Z"/></g>
<g><path style="opacity:0.667" fill="#aaaaaa" d="M 238.5,277.5 C 239.167,277.5 239.833,277.5 240.5,277.5C 240.027,278.906 239.027,279.573 237.5,279.5C 237.833,278.833 238.167,278.167 238.5,277.5 Z"/></g>
<g><path style="opacity:1" fill="#8f8f8f" d="M 245.5,278.5 C 244.833,281.167 243.167,282.833 240.5,283.5C 241.148,281.914 241.648,280.247 242,278.5C 242.333,279.167 242.667,279.833 243,280.5C 243.708,279.619 244.542,278.953 245.5,278.5 Z"/></g>
<g><path style="opacity:0.537" fill="#bdbdbd" d="M 157.5,279.5 C 159.749,280.08 161.415,281.413 162.5,283.5C 160.251,282.92 158.585,281.587 157.5,279.5 Z"/></g>
<g><path style="opacity:0.576" fill="#a4e3f8" d="M 319.5,279.5 C 320.609,279.557 321.609,279.89 322.5,280.5C 323.167,281.5 323.833,282.5 324.5,283.5C 322.251,282.92 320.585,281.587 319.5,279.5 Z"/></g>
<g><path style="opacity:0.998" fill="#525252" d="M 249.5,270.5 C 250.338,270.842 250.672,271.508 250.5,272.5C 249.557,275.109 247.89,277.109 245.5,278.5C 244.542,278.953 243.708,279.619 243,280.5C 242.667,279.833 242.333,279.167 242,278.5C 241.648,280.247 241.148,281.914 240.5,283.5C 238.363,286.973 235.363,289.306 231.5,290.5C 232.029,288.417 233.029,286.583 234.5,285C 234.167,284.667 233.833,284.333 233.5,284C 230.525,283.956 227.525,284.123 224.5,284.5C 228.668,282.662 233.002,280.995 237.5,279.5C 239.027,279.573 240.027,278.906 240.5,277.5C 241.29,276.599 242.29,275.932 243.5,275.5C 245.749,274.92 247.415,273.587 248.5,271.5C 248.5,270.833 248.833,270.5 249.5,270.5 Z"/></g>
<g><path style="opacity:1" fill="#6dc2ee" d="M 328.5,278.5 C 339.269,284.787 350.935,287.12 363.5,285.5C 363.5,285.833 363.5,286.167 363.5,286.5C 353.982,288.268 344.649,287.601 335.5,284.5C 330.533,285.879 328.2,283.879 328.5,278.5 Z"/></g>
<g><path style="opacity:0.004" fill="#fefffe" d="M 163.5,285.5 C 162.833,286.167 162.833,286.167 163.5,285.5 Z"/></g>
<g><path style="opacity:0.027" fill="#dddddd" d="M 191.5,283.5 C 200.399,285.214 209.399,285.881 218.5,285.5C 212.013,286.654 205.346,286.821 198.5,286C 195.896,285.61 193.562,284.776 191.5,283.5 Z"/></g>
<g><path style="opacity:0.392" fill="#b6b6b6" d="M 165.5,286.5 C 167.027,286.427 168.027,287.094 168.5,288.5C 166.973,288.573 165.973,287.906 165.5,286.5 Z"/></g>
<g><path style="opacity:0.38" fill="#b5b5b5" d="M 168.5,288.5 C 170.027,288.427 171.027,289.094 171.5,290.5C 169.973,290.573 168.973,289.906 168.5,288.5 Z"/></g>
<g><path style="opacity:1" fill="#5cbbeb" d="M 326.5,285.5 C 331.295,287.185 335.961,289.018 340.5,291C 343.651,294.2 347.318,296.366 351.5,297.5C 341.934,295.882 333.601,291.882 326.5,285.5 Z"/></g>
<g><path style="opacity:1" fill="#67c0ec" d="M 395.5,289.5 C 390.693,292.9 385.36,295.234 379.5,296.5C 383.965,292.509 389.298,290.176 395.5,289.5 Z"/></g>
<g><path style="opacity:0.886" fill="#919191" d="M 179.5,294.5 C 183.162,294.723 186.495,295.723 189.5,297.5C 185.838,297.277 182.505,296.277 179.5,294.5 Z"/></g>
</svg>
